<?xml version="1.0" standalone="no"?>
<!-- Generator: Adobe Fireworks 10, Export SVG Extension by Aaron Beall (http://fireworks.abeall.com) . Version: 0.6.1  -->
<!DOCTYPE svg PUBLIC "-//W3C//DTD SVG 1.1//EN" "http://www.w3.org/Graphics/SVG/1.1/DTD/svg11.dtd">
<svg id="Untitled-Page%201" viewBox="0 0 512 512" style="background-color:#ffffff00" version="1.1"
	xmlns="http://www.w3.org/2000/svg" xmlns:xlink="http://www.w3.org/1999/xlink" xml:space="preserve"
	x="0px" y="0px" width="512px" height="512px"
>
	<g id="Layer%201">
		<g>
			<g>
				<path d="M 130.8142 150.7483 C 170.923 150.7483 178.7231 128.8926 178.7231 92.7192 C 178.7231 56.6045 185.2337 23.0015 239.6019 23.0015 C 256.3847 23.0015 270.2311 26.1158 281.6293 31.767 L 281.6293 6.6001 C 270.1577 5.5449 257.9482 4.9934 244.8297 4.9934 C 107.4648 4.9934 62.0866 68.1948 62.0866 109.5093 C 62.0866 136.6281 91.9227 150.7483 130.8142 150.7483 Z" fill="#000000"/>
				<path d="M 281.6293 441.4055 C 261.9181 455.4923 236.55 464.5378 211.0974 464.5378 C 155.4057 464.5378 126.9099 423.2245 126.9099 354.8569 C 126.9099 290.4436 157.9786 237.5069 281.6293 231.5177 L 281.6293 213.1713 C 77.8275 217.612 9 281.819 9 366.4477 C 9 452.9136 59.5471 511 152.8089 511 C 205.1511 511 250.9173 486.4094 281.6293 462.1237 L 281.6293 441.4055 Z" fill="#000000"/>
			</g>
			<path d="M 305.2776 507.1277 L 305.2776 500.0354 C 315.0134 500.0354 323.3098 496.6246 330.1918 489.7706 C 337.3055 482.9082 340.8698 474.6454 340.8698 464.9496 L 340.8698 41.5251 C 340.8698 31.5898 337.3055 23.2201 330.1918 16.3576 C 323.3098 9.5203 315.0134 6.0935 305.2776 6.0935 L 305.2776 -1 L 454 -1 L 454 6.0935 C 444.2814 6.0935 435.9764 9.5203 429.0943 16.3576 C 422.2121 23.2201 418.788 31.5898 418.788 41.5251 L 418.788 464.9496 C 418.788 474.6454 422.2121 482.9082 429.0943 489.7706 C 435.9764 496.6246 444.2814 500.0354 454 500.0354 L 454 507.1277 L 305.2776 507.1277 Z" fill="#000000"/>
		</g>
	</g>
</svg>